<svg width="1440" height="186" viewBox="0 0 1440 186" fill="none" xmlns="http://www.w3.org/2000/svg">
<path d="M-58 150.5L-1.73333 131.75C54.5333 113 167.067 75.5001 279.6 44.211C392.133 13.3907 504.667 -12.3906 617.2 6.71099C729.733 25.1094 842.267 88.3907 954.8 106.789C1067.33 125.891 1179.87 100.109 1292.4 106.789C1404.93 113 1517.47 150.5 1573.73 169.25L1630 188H1573.73C1517.47 188 1404.93 188 1292.4 188C1179.87 188 1067.33 188 954.8 188C842.267 188 729.733 188 617.2 188C504.667 188 392.133 188 279.6 188C167.067 188 54.5333 188 -1.73333 188H-58V150.5Z" fill="#FAEADB"/>
</svg>
